<svg xmlns="http://www.w3.org/2000/svg" viewBox="0 0 18 18" class="design-iconfont">
  <path d="M9.81035156,4.42441406 C10.5134766,4.42441406 11.1761719,4.69863281 11.6736328,5.19609375 C12.1710937,5.69355469 12.4470703,6.35449219 12.4470703,7.059375 L12.4505859,10.0722656 C12.4505859,10.2673828 12.4962891,10.4625 12.5841797,10.6382813 L13.9464844,13.359375 C13.9552734,13.3769531 13.9816406,13.4296875 13.9412109,13.4964844 C13.9007812,13.5632812 13.8410156,13.5632812 13.8216797,13.5632812 L11.7949219,13.5632812 L10.0494141,13.5650391 L7.94882812,13.5667969 L6.8203125,13.5667969 L4.190625,13.5685547 L4.18886719,13.5685547 C4.16953125,13.5685547 4.10976562,13.5685547 4.06933594,13.5017578 C4.02890625,13.4349609 4.05527344,13.3822266 4.0640625,13.3646484 L5.42460937,10.6470703 C5.5125,10.4712891 5.55820312,10.2744141 5.55820312,10.0792969 L5.5546875,7.06640625 C5.5546875,6.36152344 5.82714844,5.69882813 6.32460937,5.20136719 C6.82207031,4.70214844 7.48476562,4.42792969 8.18789062,4.42792969 L9.80683594,4.42617188 L9.81035156,4.42617188 M9.81035156,3.36972656 L9.80683594,3.36972656 L8.18789062,3.37148438 C6.14882812,3.37324219 4.49824219,5.02734375 4.5,7.06640625 L4.50351562,10.0792969 C4.50351562,10.1126953 4.49648437,10.1443359 4.48066406,10.1742188 L3.12011719,12.8917969 C2.72285156,13.6863281 3.29941406,14.6214844 4.18886719,14.6214844 L4.190625,14.6214844 L6.82207031,14.6197266 C7.06816406,15.5935547 7.95058594,16.3142578 9,16.3142578 C10.0511719,16.3142578 10.9335937,15.5917969 11.1796875,14.6162109 L10.7982422,14.6162109 L11.1796875,14.6162109 L13.8234375,14.6144531 C14.7111328,14.6144531 15.2894531,13.6775391 14.8921875,12.8830078 L13.5298828,10.1619141 C13.5158203,10.1320313 13.5070312,10.1003906 13.5070312,10.0669922 L13.5035156,7.05410156 C13.5,5.0203125 11.8476563,3.36972656 9.81035156,3.36972656 Z M7.94882812,14.6214844 L10.0494141,14.6197266 C9.85078125,14.9976562 9.45527344,15.2560547 8.99824219,15.2560547 C8.54296875,15.2560547 8.14746094,14.9976562 7.94882812,14.6214844 L7.48828125,14.6214844 L7.94882812,14.6214844 Z M9.01582031,1.7296875 C8.04023437,1.7296875 7.24921875,2.51894531 7.24570312,3.49453125 C7.54628906,3.41542969 7.8609375,3.37324219 8.18613281,3.37148438 L8.29335937,3.37148438 C8.36894531,3.05332031 8.65546875,2.81601563 8.99824219,2.81601563 C9.33925781,2.81601563 9.62578125,3.05332031 9.703125,3.37148438 L9.80859375,3.37148438 C10.1460937,3.37148438 10.4730469,3.4171875 10.7841797,3.5015625 L10.7841797,3.49980469 C10.7841797,2.52246094 9.99316406,1.7296875 9.01582031,1.7296875 Z" fill="#000" fill-rule="nonzero"/>
</svg>
